<svg id="svg" version="1.1" xmlns="http://www.w3.org/2000/svg" xmlns:xlink="http://www.w3.org/1999/xlink" width="400" height="400" viewBox="0, 0, 400,400"><g id="svgg"><path id="path0" d="M306.355 49.026 C 296.110 51.398,284.673 55.551,276.601 59.833 C 267.144 64.849,267.156 64.844,265.365 64.844 C 264.415 64.844,262.519 64.563,261.152 64.219 C 256.066 62.942,245.115 67.940,231.951 77.546 C 223.006 84.074,225.307 83.712,190.625 84.046 C 174.702 84.200,175.518 84.348,170.174 80.332 C 159.293 72.155,145.729 65.792,138.030 65.253 C 133.896 64.963,133.453 64.844,129.241 62.901 C 110.361 54.187,94.984 49.477,85.285 49.435 C 78.423 49.405,77.391 50.382,76.337 57.898 C 76.028 60.107,74.907 65.169,73.846 69.147 C 66.607 96.297,66.417 113.118,73.115 133.887 C 77.554 147.651,77.775 146.309,70.118 152.047 C 50.210 166.966,40.235 183.947,39.204 204.675 C 38.806 212.667,39.893 213.854,46.718 212.885 C 51.449 212.214,51.113 210.962,49.976 225.000 C 49.201 234.577,50.685 255.774,52.394 259.524 C 54.040 263.138,56.664 261.822,63.594 253.906 C 67.524 249.416,70.382 246.884,72.372 246.128 C 73.651 245.641,73.558 245.320,74.399 253.125 C 76.017 268.150,79.158 277.488,87.031 290.677 C 92.283 299.478,93.392 299.777,97.079 293.385 C 100.260 287.871,100.249 287.867,104.712 295.898 C 108.732 303.131,110.841 306.038,116.499 312.150 C 123.713 319.943,125.477 321.037,129.537 320.234 C 132.033 319.741,132.603 319.978,140.046 324.614 C 150.213 330.945,151.730 331.171,156.388 327.044 C 158.154 325.479,158.640 325.502,163.491 327.381 C 189.832 337.584,204.168 338.365,227.539 330.868 C 234.963 328.487,235.943 328.337,238.867 329.126 C 243.748 330.445,246.783 329.728,255.078 325.297 C 265.424 319.770,265.110 319.876,268.537 320.739 C 273.673 322.033,283.257 312.601,292.586 297.070 C 294.780 293.418,296.832 290.019,297.146 289.518 C 297.939 288.253,298.695 288.994,300.809 293.106 C 304.512 300.311,305.484 300.257,310.337 292.583 C 317.910 280.606,320.956 272.663,324.836 254.772 C 327.010 244.746,326.463 244.769,336.133 254.300 C 343.176 261.243,344.229 262.109,345.615 262.109 C 348.194 262.109,348.898 252.181,348.446 222.179 C 348.230 207.806,348.117 208.281,351.378 209.881 C 354.322 211.325,357.054 211.341,358.471 209.924 L 359.485 208.910 359.258 202.990 C 358.595 185.673,349.475 170.643,330.080 154.907 C 320.398 147.052,320.080 145.883,324.300 133.637 C 328.791 120.603,330.184 102.169,327.787 87.500 C 326.456 79.358,321.957 57.375,321.132 54.987 C 318.790 48.203,315.554 46.897,306.355 49.026 M313.618 54.255 C 314.295 54.684,314.669 56.626,315.432 63.672 C 316.084 69.698,317.105 74.643,318.608 79.063 C 322.913 91.721,323.648 108.953,320.455 122.388 C 319.223 127.574,318.940 127.518,319.557 122.210 C 320.950 110.222,319.901 100.886,313.327 66.783 C 311.895 59.356,311.606 58.766,309.440 58.865 C 305.626 59.038,294.849 65.261,290.101 70.030 C 285.762 74.389,276.168 88.650,273.486 94.727 C 270.907 100.571,270.742 99.978,275.650 102.496 C 286.847 108.244,296.707 118.069,304.503 131.250 C 315.067 149.111,316.855 151.364,329.205 162.383 C 341.189 173.075,347.082 181.336,349.585 190.951 C 350.589 194.808,350.652 195.344,350.076 195.110 C 343.555 192.455,337.496 190.878,333.782 190.868 C 328.736 190.855,328.415 191.073,330.758 192.927 C 336.277 197.293,338.700 203.406,340.220 216.797 C 341.158 225.066,341.055 243.841,340.065 244.831 C 339.968 244.928,338.076 243.463,335.862 241.574 C 329.452 236.106,323.221 232.384,318.347 231.110 C 315.474 230.359,315.430 230.460,316.221 236.003 C 318.323 250.740,313.479 272.940,306.056 282.589 C 305.289 283.585,305.396 283.784,303.345 277.537 C 300.841 269.911,298.518 265.377,295.495 262.218 C 292.589 259.180,292.188 259.270,292.188 262.961 C 292.188 273.578,286.071 291.351,279.358 300.240 C 277.035 303.317,271.232 309.253,270.886 308.907 C 270.785 308.806,270.965 306.980,271.287 304.850 C 272.240 298.524,271.914 293.343,270.244 288.289 C 269.282 285.376,269.545 285.006,267.193 292.578 C 264.028 302.764,261.293 307.406,254.155 314.716 C 250.318 318.644,247.878 320.366,245.411 320.887 L 244.142 321.156 244.899 319.464 C 245.316 318.534,246.138 316.807,246.726 315.625 C 247.888 313.289,248.611 307.031,247.718 307.031 C 247.484 307.031,246.363 307.857,245.228 308.866 C 237.589 315.656,223.440 322.505,212.132 324.887 C 192.931 328.932,167.015 321.901,153.294 308.925 L 151.172 306.918 151.172 309.079 C 151.172 310.268,151.631 313.379,152.191 315.994 C 153.334 321.323,153.320 321.414,151.501 320.482 C 142.133 315.678,135.619 306.891,130.807 292.568 C 128.468 285.605,128.384 285.496,127.563 288.379 C 126.118 293.452,125.825 299.339,126.708 305.566 C 126.975 307.446,127.064 308.984,126.908 308.984 C 125.691 308.984,122.835 305.834,119.473 300.781 C 110.798 287.745,107.428 278.835,106.196 265.675 C 105.932 262.855,105.598 260.547,105.455 260.547 C 102.412 260.547,96.619 269.669,94.604 277.635 C 93.993 280.051,93.370 282.151,93.218 282.302 C 91.194 284.327,83.518 261.214,82.422 249.795 C 81.966 245.050,82.313 238.285,83.201 234.570 C 83.875 231.756,83.728 230.859,82.595 230.859 C 77.814 230.859,69.873 235.138,61.989 241.961 C 57.805 245.582,58.023 245.705,57.414 239.370 C 55.630 220.807,59.598 201.412,66.660 194.174 C 69.592 191.169,69.473 191.535,67.676 191.036 C 63.509 189.879,58.631 190.703,51.609 193.750 C 49.593 194.625,47.852 195.248,47.739 195.135 C 46.837 194.233,50.295 186.143,54.722 178.795 L 58.302 172.852 69.339 161.914 C 83.919 147.465,85.317 145.749,89.819 136.769 C 96.397 123.646,101.888 117.100,114.186 107.723 C 117.235 105.398,125.188 100.391,125.831 100.391 C 127.336 100.391,120.272 86.247,115.198 79.102 C 107.852 68.755,96.033 59.534,88.592 58.345 L 87.305 58.139 86.207 63.933 C 85.604 67.119,83.811 74.933,82.224 81.296 C 77.455 100.419,76.404 111.003,77.924 124.609 L 78.120 126.367 77.534 124.414 C 73.708 111.671,73.866 97.152,77.981 83.398 C 80.309 75.621,82.072 67.949,82.801 62.434 C 83.943 53.781,83.767 54.297,85.576 54.297 C 87.717 54.297,102.912 58.204,107.617 59.965 C 122.841 65.662,136.462 75.622,146.979 88.750 C 149.132 91.438,149.564 91.790,150.709 91.793 C 154.709 91.805,154.375 90.249,148.384 80.982 C 145.283 76.184,144.630 75.000,145.088 75.000 C 147.280 75.000,163.908 84.303,170.508 89.222 C 174.212 91.983,173.438 91.878,184.901 91.171 C 194.926 90.553,201.401 90.571,218.557 91.266 L 224.809 91.520 227.495 89.486 C 234.403 84.258,250.939 74.619,253.016 74.611 C 253.288 74.610,252.912 75.571,252.138 76.855 C 251.393 78.091,250.783 79.253,250.782 79.438 C 250.782 79.623,249.923 81.205,248.873 82.954 C 244.899 89.575,244.333 91.157,245.801 91.551 C 248.322 92.226,248.641 92.014,251.574 87.706 C 261.573 73.016,283.835 59.995,307.381 55.064 C 313.656 53.750,312.963 53.840,313.618 54.255 M270.703 147.706 C 258.336 150.498,252.006 155.903,239.205 174.605 C 231.118 186.420,224.997 188.980,220.006 182.635 C 216.186 177.780,219.607 166.222,228.765 153.040 C 231.522 149.071,231.408 148.992,228.125 152.594 C 222.789 158.448,215.927 170.366,214.819 175.707 C 212.211 188.269,225.067 198.868,233.581 191.176 L 235.066 189.834 235.960 193.452 C 239.708 208.632,252.144 217.259,265.345 213.838 C 288.906 207.733,293.253 167.733,271.723 155.149 L 268.642 153.348 272.114 152.466 C 274.024 151.981,277.871 151.216,280.664 150.765 C 287.787 149.616,287.914 149.526,283.969 148.431 C 280.249 147.399,273.658 147.038,270.703 147.706 M118.226 148.039 C 112.458 149.089,109.007 150.781,112.635 150.781 C 114.423 150.781,122.453 152.024,127.271 153.046 L 128.565 153.320 126.044 154.976 C 111.283 164.674,107.845 187.812,118.793 203.781 C 131.379 222.137,156.268 216.129,161.846 193.388 L 162.724 189.811 163.664 190.812 C 168.812 196.292,178.782 193.490,182.808 185.432 C 186.297 178.450,181.430 166.334,169.584 152.510 C 168.037 150.704,168.240 151.092,171.032 155.273 C 179.513 167.971,181.784 181.731,175.947 185.052 C 170.269 188.283,162.592 182.444,153.555 168.021 C 143.666 152.237,131.856 145.558,118.226 148.039 M138.470 159.194 C 139.738 159.525,141.401 160.184,142.165 160.659 L 143.555 161.523 140.528 161.798 C 130.859 162.675,124.609 171.830,124.609 185.119 C 124.609 198.333,131.869 206.250,143.988 206.250 C 147.557 206.250,147.470 206.710,143.682 207.860 C 133.964 210.812,122.940 203.938,120.138 193.180 C 115.168 174.099,125.088 155.709,138.470 159.194 M267.437 160.351 C 276.506 164.747,282.147 179.852,278.956 191.197 C 275.397 203.853,262.708 211.592,253.125 206.951 L 250.977 205.911 253.731 206.129 C 259.096 206.555,262.932 205.075,267.028 200.999 C 278.973 189.113,273.287 164.440,258.044 162.015 C 255.274 161.574,255.205 161.536,256.006 160.914 C 259.036 158.562,263.312 158.351,267.437 160.351 M250.391 177.306 C 253.643 179.568,253.401 185.340,249.976 187.177 C 247.428 188.543,244.562 187.679,242.967 185.062 C 240.059 180.293,245.904 174.186,250.391 177.306 M152.784 177.174 C 153.493 177.541,154.265 178.441,154.710 179.420 C 157.685 185.973,149.804 191.053,145.801 185.162 C 142.784 180.723,148.034 174.718,152.784 177.174 M192.773 201.985 C 155.247 204.084,124.098 235.507,130.269 265.039 C 135.109 288.196,161.760 298.609,184.180 286.103 C 186.328 284.904,189.580 283.111,191.406 282.117 C 193.232 281.123,195.412 279.819,196.250 279.218 C 198.462 277.631,199.680 277.784,203.125 280.078 C 204.736 281.151,206.240 282.030,206.468 282.030 C 206.695 282.031,209.068 283.292,211.741 284.832 C 229.818 295.249,246.880 293.764,259.499 280.677 C 276.200 263.355,268.191 231.608,242.969 215.149 C 227.274 204.907,212.024 200.908,192.773 201.985 M211.328 206.688 C 221.794 208.647,234.572 213.799,241.992 219.049 C 254.693 228.037,264.466 246.982,262.927 259.636 C 259.744 285.818,232.760 293.458,208.653 275.002 C 202.006 269.912,202.471 270.880,202.141 261.453 L 201.864 253.570 203.569 253.130 C 210.645 251.305,213.910 249.019,217.202 243.588 C 218.786 240.975,219.329 240.817,218.992 243.066 L 218.743 244.727 219.513 243.750 C 225.550 236.091,223.961 225.751,216.103 221.563 C 209.881 218.246,198.073 216.969,189.648 218.701 C 173.928 221.933,169.358 234.163,179.484 245.898 L 180.496 247.070 179.509 244.922 C 177.302 240.113,179.761 240.634,183.204 245.705 C 185.667 249.331,187.629 250.790,192.132 252.344 L 196.095 253.711 195.860 260.938 C 195.520 271.384,195.558 271.328,183.466 279.642 C 172.202 287.387,153.189 286.805,144.281 278.445 C 126.732 261.975,136.376 228.142,162.330 215.123 C 179.510 206.504,195.576 203.738,211.328 206.688 M206.641 222.869 C 210.465 223.726,214.655 225.672,216.564 227.475 C 218.479 229.285,218.239 229.546,215.612 228.511 C 204.663 224.195,189.422 225.122,178.418 230.774 C 177.824 231.079,178.149 229.762,178.906 228.800 C 183.126 223.435,196.457 220.584,206.641 222.869 " stroke="none" fill="#060606" fill-rule="evenodd"></path><path id="path1" d="M310.938 47.548 C 301.215 48.667,283.255 55.092,272.452 61.315 C 267.079 64.411,265.666 64.787,262.626 63.934 C 258.464 62.766,256.642 63.093,249.591 66.269 C 243.315 69.096,239.256 71.502,231.889 76.760 C 222.695 83.322,224.718 82.817,205.859 83.260 C 176.293 83.954,175.965 83.922,170.533 79.749 C 160.430 71.988,145.722 65.138,137.810 64.509 C 133.495 64.165,133.336 64.111,123.522 59.598 C 106.208 51.637,84.156 46.554,79.368 49.419 C 77.364 50.618,76.619 52.210,75.962 56.692 C 75.367 60.749,74.942 62.609,72.448 72.070 C 65.760 97.446,66.020 114.336,73.449 136.999 C 76.005 144.799,76.104 145.402,75.074 146.963 C 74.377 148.020,73.758 148.527,67.779 152.936 C 50.535 165.650,40.066 183.703,38.735 203.019 C 38.068 212.706,38.561 213.477,45.424 213.477 L 50.195 213.477 50.174 214.844 C 50.162 215.596,49.918 218.826,49.632 222.021 C 48.527 234.379,50.128 257.623,52.286 260.547 C 54.371 263.371,57.166 262.028,63.293 255.260 C 68.099 249.952,70.261 247.918,72.144 246.931 C 73.107 246.426,73.014 246.062,73.835 253.516 C 75.494 268.577,78.583 277.787,86.350 290.833 C 91.913 300.177,93.619 300.795,97.060 294.712 C 100.425 288.764,99.937 288.706,103.728 295.508 C 108.739 304.499,111.205 307.804,118.197 314.902 C 123.696 320.485,124.448 320.898,129.102 320.898 C 133.041 320.898,132.893 320.833,142.132 326.663 C 149.173 331.107,152.304 331.478,155.889 328.294 C 158.206 326.236,158.656 326.202,162.704 327.769 C 189.551 338.159,204.492 338.945,228.445 331.225 C 234.888 329.149,236.147 328.995,239.453 329.883 C 243.826 331.057,247.569 330.124,255.302 325.933 C 264.836 320.765,265.147 320.644,267.586 321.156 C 274.744 322.657,285.993 311.182,296.685 291.472 C 298.013 289.025,297.967 288.995,300.450 293.892 C 304.686 302.250,307.209 300.724,315.575 284.746 C 320.348 275.631,322.097 270.370,325.221 255.738 C 326.038 251.912,326.916 248.494,327.173 248.143 C 327.871 247.188,328.861 247.970,336.744 255.711 C 348.891 267.639,349.089 267.248,348.921 231.764 C 348.810 208.263,348.699 209.275,351.256 210.609 C 358.717 214.499,361.766 208.686,359.177 195.508 C 356.374 181.242,347.272 168.114,330.960 154.811 C 320.860 146.574,320.799 146.378,324.683 134.604 C 331.188 114.882,331.290 101.492,325.170 70.508 C 320.848 48.630,319.562 46.555,310.938 47.548 M316.658 48.686 C 320.368 50.446,323.538 61.501,327.787 87.500 C 330.184 102.169,328.791 120.603,324.300 133.637 C 320.080 145.883,320.398 147.052,330.080 154.907 C 349.475 170.643,358.595 185.673,359.258 202.990 L 359.485 208.910 358.471 209.924 C 357.054 211.341,354.322 211.325,351.378 209.881 C 348.117 208.281,348.230 207.806,348.446 222.179 C 348.898 252.181,348.194 262.109,345.615 262.109 C 344.229 262.109,343.176 261.243,336.133 254.300 C 326.463 244.769,327.010 244.746,324.836 254.772 C 320.956 272.663,317.910 280.606,310.337 292.583 C 305.484 300.257,304.512 300.311,300.809 293.106 C 298.695 288.994,297.939 288.253,297.146 289.518 C 296.832 290.019,294.780 293.418,292.586 297.070 C 283.257 312.601,273.673 322.033,268.537 320.739 C 265.110 319.876,265.424 319.770,255.078 325.297 C 246.783 329.728,243.748 330.445,238.867 329.126 C 235.943 328.337,234.963 328.487,227.539 330.868 C 204.168 338.365,189.832 337.584,163.491 327.381 C 158.640 325.502,158.154 325.479,156.388 327.044 C 151.730 331.171,150.213 330.945,140.046 324.614 C 132.603 319.978,132.033 319.741,129.537 320.234 C 125.477 321.037,123.713 319.943,116.499 312.150 C 110.841 306.038,108.732 303.131,104.712 295.898 C 100.249 287.867,100.260 287.871,97.079 293.385 C 93.392 299.777,92.283 299.478,87.031 290.677 C 79.158 277.488,76.017 268.150,74.399 253.125 C 73.558 245.320,73.651 245.641,72.372 246.128 C 70.382 246.884,67.524 249.416,63.594 253.906 C 56.664 261.822,54.040 263.138,52.394 259.524 C 50.685 255.774,49.201 234.577,49.976 225.000 C 51.113 210.962,51.449 212.214,46.718 212.885 C 39.893 213.854,38.806 212.667,39.204 204.675 C 40.235 183.947,50.210 166.966,70.118 152.047 C 77.775 146.309,77.554 147.651,73.115 133.887 C 66.417 113.118,66.607 96.297,73.846 69.147 C 74.907 65.169,76.028 60.107,76.337 57.898 C 77.391 50.382,78.423 49.405,85.285 49.435 C 94.984 49.477,110.361 54.187,129.241 62.901 C 133.453 64.844,133.896 64.963,138.030 65.253 C 145.729 65.792,159.293 72.155,170.174 80.332 C 175.518 84.348,174.702 84.200,190.625 84.046 C 225.307 83.712,223.006 84.074,231.951 77.546 C 245.115 67.940,256.066 62.942,261.152 64.219 C 262.519 64.563,264.415 64.844,265.365 64.844 C 267.156 64.844,267.144 64.849,276.601 59.833 C 290.813 52.295,311.898 46.427,316.658 48.686 M307.381 55.064 C 283.835 59.995,261.573 73.016,251.574 87.706 C 248.641 92.014,248.322 92.226,245.801 91.551 C 244.333 91.157,244.899 89.575,248.873 82.954 C 249.923 81.205,250.782 79.623,250.782 79.438 C 250.783 79.253,251.393 78.091,252.138 76.855 C 252.912 75.571,253.288 74.610,253.016 74.611 C 250.939 74.619,234.403 84.258,227.495 89.486 L 224.809 91.520 218.557 91.266 C 201.401 90.571,194.926 90.553,184.901 91.171 C 173.438 91.878,174.212 91.983,170.508 89.222 C 163.908 84.303,147.280 75.000,145.088 75.000 C 144.630 75.000,145.283 76.184,148.384 80.982 C 154.375 90.249,154.709 91.805,150.709 91.793 C 149.564 91.790,149.132 91.438,146.979 88.750 C 136.462 75.622,122.841 65.662,107.617 59.965 C 102.912 58.204,87.717 54.297,85.576 54.297 C 83.767 54.297,83.943 53.781,82.801 62.434 C 82.072 67.949,80.309 75.621,77.981 83.398 C 73.866 97.152,73.708 111.671,77.534 124.414 L 78.120 126.367 77.924 124.609 C 76.404 111.003,77.455 100.419,82.224 81.296 C 83.811 74.933,85.604 67.119,86.207 63.933 L 87.305 58.139 88.592 58.345 C 96.033 59.534,107.852 68.755,115.198 79.102 C 120.272 86.247,127.336 100.391,125.831 100.391 C 125.188 100.391,117.235 105.398,114.186 107.723 C 101.888 117.100,96.397 123.646,89.819 136.769 C 85.317 145.749,83.919 147.465,69.339 161.914 L 58.302 172.852 54.722 178.795 C 50.295 186.143,46.837 194.233,47.739 195.135 C 47.852 195.248,49.593 194.625,51.609 193.750 C 58.631 190.703,63.509 189.879,67.676 191.036 C 69.473 191.535,69.592 191.169,66.660 194.174 C 59.598 201.412,55.630 220.807,57.414 239.370 C 58.023 245.705,57.805 245.582,61.989 241.961 C 69.873 235.138,77.814 230.859,82.595 230.859 C 83.728 230.859,83.875 231.756,83.201 234.570 C 82.313 238.285,81.966 245.050,82.422 249.795 C 83.518 261.214,91.194 284.327,93.218 282.302 C 93.370 282.151,93.993 280.051,94.604 277.635 C 96.619 269.669,102.412 260.547,105.455 260.547 C 105.598 260.547,105.932 262.855,106.196 265.675 C 107.428 278.835,110.798 287.745,119.473 300.781 C 122.835 305.834,125.691 308.984,126.908 308.984 C 127.064 308.984,126.975 307.446,126.708 305.566 C 125.825 299.339,126.118 293.452,127.563 288.379 C 128.384 285.496,128.468 285.605,130.807 292.568 C 135.619 306.891,142.133 315.678,151.501 320.482 C 153.320 321.414,153.334 321.323,152.191 315.994 C 151.631 313.379,151.172 310.268,151.172 309.079 L 151.172 306.918 153.294 308.925 C 167.015 321.901,192.931 328.932,212.132 324.887 C 223.440 322.505,237.589 315.656,245.228 308.866 C 246.363 307.857,247.484 307.031,247.718 307.031 C 248.611 307.031,247.888 313.289,246.726 315.625 C 246.138 316.807,245.316 318.534,244.899 319.464 L 244.142 321.156 245.411 320.887 C 247.878 320.366,250.318 318.644,254.155 314.716 C 261.293 307.406,264.028 302.764,267.193 292.578 C 269.545 285.006,269.282 285.376,270.244 288.289 C 271.914 293.343,272.240 298.524,271.287 304.850 C 270.965 306.980,270.785 308.806,270.886 308.907 C 271.232 309.253,277.035 303.317,279.358 300.240 C 286.071 291.351,292.188 273.578,292.188 262.961 C 292.188 259.270,292.589 259.180,295.495 262.218 C 298.518 265.377,300.841 269.911,303.345 277.537 C 305.396 283.784,305.289 283.585,306.056 282.589 C 313.479 272.940,318.323 250.740,316.221 236.003 C 315.430 230.460,315.474 230.359,318.347 231.110 C 323.221 232.384,329.452 236.106,335.862 241.574 C 338.076 243.463,339.968 244.928,340.065 244.831 C 341.055 243.841,341.158 225.066,340.220 216.797 C 338.700 203.406,336.277 197.293,330.758 192.927 C 328.415 191.073,328.736 190.855,333.782 190.868 C 337.496 190.878,343.555 192.455,350.076 195.110 C 350.652 195.344,350.589 194.808,349.585 190.951 C 347.082 181.336,341.189 173.075,329.205 162.383 C 316.855 151.364,315.067 149.111,304.503 131.250 C 296.707 118.069,286.847 108.244,275.650 102.496 C 270.742 99.978,270.907 100.571,273.486 94.727 C 276.168 88.650,285.762 74.389,290.101 70.030 C 294.849 65.261,305.626 59.038,309.440 58.865 C 311.992 58.748,311.604 57.403,316.394 83.008 C 317.480 88.809,318.642 95.313,318.978 97.461 C 319.819 102.843,320.152 117.090,319.557 122.210 C 318.940 127.518,319.223 127.574,320.455 122.388 C 323.648 108.953,322.913 91.721,318.608 79.063 C 317.105 74.643,316.084 69.698,315.432 63.672 C 314.669 56.626,314.295 54.684,313.618 54.255 C 312.963 53.840,313.656 53.750,307.381 55.064 M283.969 148.431 C 287.914 149.526,287.787 149.616,280.664 150.765 C 277.871 151.216,274.024 151.981,272.114 152.466 L 268.642 153.348 271.723 155.149 C 293.253 167.733,288.906 207.733,265.345 213.838 C 252.144 217.259,239.708 208.632,235.960 193.452 L 235.066 189.834 233.581 191.176 C 225.067 198.868,212.211 188.269,214.819 175.707 C 215.927 170.366,222.789 158.448,228.125 152.594 C 231.408 148.992,231.522 149.071,228.765 153.040 C 219.607 166.222,216.186 177.780,220.006 182.635 C 224.997 188.980,231.118 186.420,239.205 174.605 C 252.006 155.903,258.336 150.498,270.703 147.706 C 273.658 147.038,280.249 147.399,283.969 148.431 M132.216 149.020 C 140.360 151.406,146.659 157.014,153.555 168.021 C 162.592 182.444,170.269 188.283,175.947 185.052 C 181.784 181.731,179.513 167.971,171.032 155.273 C 168.240 151.092,168.037 150.704,169.584 152.510 C 181.430 166.334,186.297 178.450,182.808 185.432 C 178.782 193.490,168.812 196.292,163.664 190.812 L 162.724 189.811 161.846 193.388 C 156.268 216.129,131.379 222.137,118.793 203.781 C 107.845 187.812,111.283 164.674,126.044 154.976 L 128.565 153.320 127.271 153.046 C 122.453 152.024,114.423 150.781,112.635 150.781 C 109.874 150.781,110.223 150.239,113.656 149.197 C 119.786 147.335,126.253 147.273,132.216 149.020 M132.143 159.160 C 121.582 162.461,116.147 177.860,120.138 193.180 C 122.940 203.938,133.964 210.812,143.682 207.860 C 147.470 206.710,147.557 206.250,143.988 206.250 C 131.869 206.250,124.609 198.333,124.609 185.119 C 124.609 171.830,130.859 162.675,140.528 161.798 L 143.555 161.523 142.165 160.659 C 139.261 158.853,135.112 158.233,132.143 159.160 M258.008 159.618 C 254.897 161.349,254.899 161.514,258.044 162.015 C 273.287 164.440,278.973 189.113,267.028 200.999 C 262.932 205.075,259.096 206.555,253.731 206.129 L 250.977 205.911 253.125 206.951 C 262.708 211.592,275.397 203.853,278.956 191.197 C 282.147 179.852,276.506 164.747,267.437 160.351 C 264.535 158.944,259.870 158.581,258.008 159.618 M246.361 176.741 C 244.480 177.408,243.397 178.368,242.720 179.968 C 240.673 184.803,245.486 189.585,249.976 187.177 C 255.391 184.273,252.080 174.714,246.361 176.741 M147.616 177.449 C 144.998 179.198,144.162 182.751,145.801 185.162 C 149.804 191.053,157.685 185.973,154.710 179.420 C 153.436 176.614,150.209 175.717,147.616 177.449 M210.742 202.551 C 221.307 204.021,232.799 208.513,242.969 215.149 C 268.191 231.608,276.200 263.355,259.499 280.677 C 246.880 293.764,229.818 295.249,211.741 284.832 C 209.068 283.292,206.695 282.031,206.468 282.030 C 206.240 282.030,204.736 281.151,203.125 280.078 C 199.680 277.784,198.462 277.631,196.250 279.218 C 195.412 279.819,193.232 281.123,191.406 282.117 C 189.580 283.111,186.328 284.904,184.180 286.103 C 173.325 292.158,160.067 293.257,150.263 288.915 C 132.829 281.194,125.166 262.750,131.699 244.232 C 141.807 215.580,175.745 197.684,210.742 202.551 M192.122 205.846 C 179.243 206.907,161.411 213.948,152.888 221.337 C 143.154 229.776,135.737 243.502,135.254 253.969 C 134.116 278.672,154.819 291.813,179.242 281.889 C 181.941 280.792,183.553 279.725,190.133 274.678 C 195.833 270.306,195.532 271.028,195.860 260.938 L 196.095 253.711 192.132 252.344 C 187.629 250.790,185.667 249.331,183.204 245.705 C 179.761 240.634,177.302 240.113,179.509 244.922 L 180.496 247.070 179.484 245.898 C 169.358 234.163,173.928 221.933,189.648 218.701 C 198.073 216.969,209.881 218.246,216.103 221.563 C 223.961 225.751,225.550 236.091,219.513 243.750 L 218.743 244.727 218.992 243.066 C 219.329 240.817,218.786 240.975,217.202 243.588 C 213.910 249.019,210.645 251.305,203.569 253.130 L 201.864 253.570 202.141 261.453 C 202.471 270.880,202.006 269.912,208.653 275.002 C 225.556 287.943,245.831 288.675,255.470 276.694 C 266.275 263.262,265.518 247.947,253.190 230.544 C 241.501 214.043,216.307 203.853,192.122 205.846 M193.383 222.273 C 186.606 223.222,178.125 227.716,178.125 230.359 C 178.125 230.670,178.257 230.857,178.418 230.774 C 189.422 225.122,204.663 224.195,215.612 228.511 C 218.239 229.546,218.479 229.285,216.564 227.475 C 212.332 223.477,201.749 221.101,193.383 222.273 " stroke="#000000" fill="none"></path></g></svg>